<svg width="32" height="32" viewBox="0 0 32 32" fill="none" xmlns="http://www.w3.org/2000/svg">
  <!-- 복싱 글러브 - 빨간색 테마로 -->
  <rect width="32" height="32" rx="4" fill="#1E293B"/>
  
  <!-- 글러브 메인 부분 -->
  <path d="M22 10C22 7.79086 20.2091 6 18 6H14C11.7909 6 10 7.79086 10 10V17C10 19.7614 12.2386 22 15 22H17C19.7614 22 22 19.7614 22 17V10Z" fill="#E11D48"/>
  
  <!-- 글러브 커프스 부분 -->
  <rect x="10" y="18" width="12" height="8" rx="2" fill="#F43F5E"/>
  
  <!-- 글러브 스트랩 -->
  <rect x="11" y="21" width="10" height="2" rx="1" fill="#E11D48"/>
  
  <!-- 글러브 그림자/디테일 -->
  <path d="M18 13C18 14.1046 17.1046 15 16 15C14.8954 15 14 14.1046 14 13C14 11.8954 14.8954 11 16 11C17.1046 11 18 11.8954 18 13Z" fill="#881337"/>
</svg> 